# xmcd
#
# Track frame offsets:
#	150
#	18887
#	37635
#	57582
#	73035
#	95435
#	114922
#	134635
#	151185
#	169947
#	187747
#
# Disc length: 2701 seconds
#
# Revision: 1
# Processed by: cddbd v1.5.1PL0 Copyright (c) Steve Scherf et al.
# Submitted via: CDex 1.50Beta5
#
DISCID=850a8b0b
DTITLE=柳ジョージ - S・A・Y・O・N・A・R・A
DYEAR=1987
DGENRE=Pop
TTITLE0=アイム・ランブラー
TTITLE1=Oh!マリアンヌ
TTITLE2=破局
TTITLE3=舞台裏のラプソディ
TTITLE4=陽はまた昇る
TTITLE5=カモン・チョコレート・ロッカーズ
TTITLE6=グッド・バイ・ビッグ・ブラザーズ
TTITLE7=黙想
TTITLE8=シュガー・マザー
TTITLE9=ターニング・ポイント
TTITLE10=雨に煙る森
EXTD=
EXTT0=
EXTT1=
EXTT2=
EXTT3=
EXTT4=
EXTT5=
EXTT6=
EXTT7=
EXTT8=
EXTT9=
EXTT10=
PLAYORDER=
